<?xml version="1.0" encoding="UTF-8"?>
<svg id="BACKGROUND_1" data-name="BACKGROUND 1" xmlns="http://www.w3.org/2000/svg" viewBox="0 0 333.96 281.87">
  <defs>
    <style>
      .cls-1, .cls-2 {
        fill: #fff;
      }

      .cls-3 {
        opacity: .64;
      }

      .cls-3, .cls-4 {
        fill: #212121;
      }

      .cls-5 {
        fill: #f5f5f5;
      }

      .cls-6 {
        fill: #e0e0e0;
      }

      .cls-7 {
        fill: #bdbdbd;
      }

      .cls-8 {
        fill: #424242;
      }

      .cls-2 {
        font-family: Poppins-SemiBold, Poppins;
        font-size: 23.76px;
        font-weight: 600;
      }

      .cls-4 {
        opacity: .15;
      }

      .cls-9 {
        fill: #7fc1f7;
      }
    </style>
  </defs>
  <polygon class="cls-9" points="241.73 57.66 238.42 54.35 235.26 57.5 232.1 54.35 228.79 57.66 231.95 60.82 228.79 63.97 232.1 67.28 235.26 64.13 238.42 67.28 241.73 63.97 238.57 60.82 241.73 57.66"/>
  <polygon class="cls-9" points="39.42 176.87 36.11 173.56 32.95 176.71 29.79 173.56 26.48 176.87 29.64 180.02 26.48 183.18 29.79 186.49 32.95 183.34 36.11 186.49 39.42 183.18 36.26 180.02 39.42 176.87"/>
  <polygon class="cls-9" points="99.64 35.74 96.33 32.42 93.17 35.58 90.01 32.42 86.7 35.74 89.86 38.89 86.7 42.05 90.01 45.36 93.17 42.21 96.33 45.36 99.64 42.05 96.48 38.89 99.64 35.74"/>
  <polygon class="cls-9" points="307.74 201.15 304.42 197.84 301.27 200.99 298.11 197.84 294.8 201.15 297.95 204.31 294.8 207.46 298.11 210.78 301.27 207.62 304.42 210.78 307.74 207.46 304.58 204.31 307.74 201.15"/>
  <path class="cls-9" d="m39.42,72.12c-2.67,0-4.83-2.17-4.83-4.83s2.17-4.83,4.83-4.83,4.83,2.17,4.83,4.83-2.17,4.83-4.83,4.83Zm0-7.67c-1.56,0-2.83,1.27-2.83,2.83s1.27,2.83,2.83,2.83,2.83-1.27,2.83-2.83-1.27-2.83-2.83-2.83Z"/>
  <path class="cls-9" d="m179.83,28.23c-2.67,0-4.83-2.17-4.83-4.83s2.17-4.83,4.83-4.83,4.83,2.17,4.83,4.83-2.17,4.83-4.83,4.83Zm0-7.67c-1.56,0-2.83,1.27-2.83,2.83s1.27,2.83,2.83,2.83,2.83-1.27,2.83-2.83-1.27-2.83-2.83-2.83Z"/>
  <path class="cls-9" d="m315.35,95.94c-2.66,0-4.83-2.17-4.83-4.83s2.17-4.83,4.83-4.83,4.83,2.17,4.83,4.83-2.17,4.83-4.83,4.83Zm0-7.67c-1.56,0-2.83,1.27-2.83,2.83s1.27,2.83,2.83,2.83,2.83-1.27,2.83-2.83-1.27-2.83-2.83-2.83Z"/>
  <path class="cls-9" d="m253.7,175.71c-2.66,0-4.83-2.17-4.83-4.83s2.17-4.83,4.83-4.83,4.83,2.17,4.83,4.83-2.17,4.83-4.83,4.83Zm0-7.67c-1.56,0-2.83,1.27-2.83,2.83s1.27,2.83,2.83,2.83,2.83-1.27,2.83-2.83-1.27-2.83-2.83-2.83Z"/>
  <path class="cls-9" d="m86.7,236.85c-2.66,0-4.83-2.17-4.83-4.83s2.17-4.83,4.83-4.83,4.83,2.17,4.83,4.83-2.17,4.83-4.83,4.83Zm0-7.67c-1.56,0-2.83,1.27-2.83,2.83s1.27,2.83,2.83,2.83,2.83-1.27,2.83-2.83-1.27-2.83-2.83-2.83Z"/>
  <circle class="cls-9" cx="95.6" cy="70.23" r="8.99"/>
  <circle class="cls-9" cx="100.07" cy="173.71" r="4.52"/>
  <path class="cls-9" d="m329.22,159.14c0,2.5-2.02,4.52-4.52,4.52s-4.52-2.02-4.52-4.52,2.02-4.52,4.52-4.52,4.52,2.02,4.52,4.52Z"/>
  <path class="cls-9" d="m14,101.24c0,2.5-2.02,4.52-4.52,4.52s-4.52-2.02-4.52-4.52,2.02-4.52,4.52-4.52,4.52,2.02,4.52,4.52Z"/>
  <path class="cls-9" d="m239.78,101.24c0,2.5-2.02,4.52-4.52,4.52s-4.52-2.02-4.52-4.52,2.02-4.52,4.52-4.52,4.52,2.02,4.52,4.52Z"/>
  <circle class="cls-9" cx="225.84" cy="227.19" r="6.8"/>
  <g>
    <path class="cls-1" d="m55.3,171.26v-21.07H14v-16.83l47.38-60.82h12.87v60.68h12.45v16.98h-12.45v21.07h-18.95Zm-22.35-38.05h24.47v-31.97l-24.47,31.97Z"/>
    <path class="cls-1" d="m276.05,171.26v-21.07h-41.3v-16.83l47.38-60.82h12.87v60.68h12.45v16.98h-12.45v21.07h-18.95Zm-22.35-38.05h24.47v-31.97l-24.47,31.97Z"/>
  </g>
  <path class="cls-4" d="m235.3,177.92l.37-.34c.56-.51.6-1.38.09-1.94l-7.58-8.29c7.81-9.83,12.71-22.13,13.3-35.63,1.51-34.05-24.87-62.87-58.92-64.38-34.06-1.51-62.88,24.87-64.39,58.92-1.51,34.06,24.88,62.88,58.93,64.39,13.5.59,26.18-3.19,36.66-10.11l7.58,8.29c.51.56,1.38.6,1.94.09l.37-.34,56.22,61.42h21.39l-65.96-72.08Z"/>
  <g>
    <path class="cls-8" d="m308.08,257.48l-91.59-91.59-11.78,11.78,91.59,91.58c3.44,3.44,9.09,3.21,12.23-.51h0c2.8-3.3,2.6-8.2-.47-11.26Z"/>
    <path class="cls-6" d="m196.23,171.98l11.05,11.05c.56.56,1.48.56,2.04,0l12.53-12.53c.56-.56.56-1.48,0-2.04l-11.05-11.05-14.58,14.58Z"/>
    <polygon class="cls-7" points="212.55 159.14 213.96 160.55 202.11 177.86 196.9 172.65 212.55 159.14"/>
    <polygon class="cls-3" points="209.71 182.65 221.48 170.88 222.29 171.68 213.08 186.03 209.71 182.65"/>
    <path class="cls-5" d="m160.72,56.77c-35.96,0-65.12,29.15-65.12,65.12s29.15,65.12,65.12,65.12,65.12-29.15,65.12-65.12-29.15-65.12-65.12-65.12Zm0,116.78c-28.53,0-51.66-23.13-51.66-51.66s23.13-51.66,51.66-51.66,51.66,23.13,51.66,51.66-23.13,51.66-51.66,51.66Z"/>
    <circle class="cls-8" cx="160.72" cy="121.89" r="51.66"/>
    <path class="cls-1" d="m126.44,87.61c-7.47,7.47-11.96,15.1-10.03,17.03,1.93,1.93,9.56-2.56,17.03-10.03,7.47-7.47,11.96-15.1,10.03-17.03-1.93-1.93-9.56,2.56-17.03,10.03Z"/>
  </g>
  <text class="cls-2" transform="translate(57.84 213.1)"><tspan x="0" y="0">PAGE NOT FOUND</tspan></text>
</svg>